<svg width="14" height="18" viewBox="0 0 12 14" fill="none" xmlns="http://www.w3.org/2000/svg">
<path d="M9.99996 5.66732H3.99996V3.66732C3.99996 2.56465 4.89729 1.66732 5.99996 1.66732C7.10262 1.66732 7.99996 2.56465 7.99996 3.66732H9.33329C9.33329 1.82932 7.83796 0.333984 5.99996 0.333984C4.16196 0.333984 2.66663 1.82932 2.66663 3.66732V5.66732H1.99996C1.64634 5.66732 1.3072 5.80779 1.05715 6.05784C0.807102 6.30789 0.666626 6.64703 0.666626 7.00065V12.334C0.666626 12.6876 0.807102 13.0267 1.05715 13.2768C1.3072 13.5268 1.64634 13.6673 1.99996 13.6673H9.99996C10.3536 13.6673 10.6927 13.5268 10.9428 13.2768C11.1928 13.0267 11.3333 12.6876 11.3333 12.334V7.00065C11.3333 6.64703 11.1928 6.30789 10.9428 6.05784C10.6927 5.80779 10.3536 5.66732 9.99996 5.66732ZM4.70729 9.33332C4.78924 9.01961 4.98258 8.74645 5.25121 8.56488C5.51984 8.3833 5.84538 8.30572 6.16703 8.34663C6.48868 8.38754 6.78443 8.54414 6.99905 8.78718C7.21368 9.03022 7.33249 9.34308 7.33329 9.66732C7.33291 9.90048 7.27108 10.1294 7.15404 10.3311C7.037 10.5327 6.86889 10.7 6.66663 10.816V12.334H5.33329V10.816C5.08104 10.6714 4.88319 10.4481 4.77011 10.1803C4.65702 9.91245 4.63496 9.6149 4.70729 9.33332Z" fill="black"/>
</svg>
