<svg width="18" height="18" viewBox="0 0 18 18" fill="none" xmlns="http://www.w3.org/2000/svg">
<path d="M17.8125 15.5625H1.6875V0.9375C1.6875 0.834375 1.60313 0.75 1.5 0.75H0.1875C0.084375 0.75 0 0.834375 0 0.9375V17.0625C0 17.1656 0.084375 17.25 0.1875 17.25H17.8125C17.9156 17.25 18 17.1656 18 17.0625V15.75C18 15.6469 17.9156 15.5625 17.8125 15.5625ZM3.375 14.0625H15.9375C16.0406 14.0625 16.125 13.9781 16.125 13.875V3.65625C16.125 3.4875 15.9211 3.40547 15.8039 3.52266L10.875 8.45156L7.93594 5.54531C7.9007 5.51042 7.85311 5.49084 7.80352 5.49084C7.75392 5.49084 7.70633 5.51042 7.67109 5.54531L3.24141 9.98906C3.2242 10.0063 3.21058 10.0268 3.20133 10.0493C3.19208 10.0718 3.18738 10.096 3.1875 10.1203V13.875C3.1875 13.9781 3.27187 14.0625 3.375 14.0625Z" fill="#707070"/>
</svg>
