<svg width="14" height="18" viewBox="0 0 12 14" fill="none" xmlns="http://www.w3.org/2000/svg">
<path d="M6.00008 0.333984C4.16208 0.333984 2.66675 1.82932 2.66675 3.66732V5.66732H2.00008C1.64646 5.66732 1.30732 5.80779 1.05727 6.05784C0.807224 6.30789 0.666748 6.64703 0.666748 7.00065V12.334C0.666748 12.6876 0.807224 13.0267 1.05727 13.2768C1.30732 13.5268 1.64646 13.6673 2.00008 13.6673H10.0001C10.3537 13.6673 10.6928 13.5268 10.9429 13.2768C11.1929 13.0267 11.3334 12.6876 11.3334 12.334V7.00065C11.3334 6.64703 11.1929 6.30789 10.9429 6.05784C10.6928 5.80779 10.3537 5.66732 10.0001 5.66732H9.33341V3.66732C9.33341 1.82932 7.83808 0.333984 6.00008 0.333984ZM4.00008 3.66732C4.00008 2.56465 4.89741 1.66732 6.00008 1.66732C7.10275 1.66732 8.00008 2.56465 8.00008 3.66732V5.66732H4.00008V3.66732ZM6.66675 10.816V12.334H5.33341V10.816C5.10034 10.6825 4.91319 10.4815 4.79663 10.2396C4.68008 9.99757 4.6396 9.72595 4.68054 9.4605C4.72147 9.19505 4.84189 8.94824 5.02592 8.75261C5.20996 8.55697 5.44896 8.42171 5.71141 8.36465C5.90636 8.32155 6.10849 8.32275 6.30291 8.36817C6.49733 8.4136 6.67907 8.50208 6.83474 8.6271C6.9904 8.75212 7.11602 8.91048 7.20233 9.09052C7.28864 9.27055 7.33343 9.46766 7.33341 9.66732C7.33303 9.90048 7.27121 10.1294 7.15417 10.3311C7.03713 10.5327 6.86901 10.7 6.66675 10.816Z" fill="#222127"/>
</svg>
