<svg width="22" height="16" viewBox="0 0 22 16" fill="#707070" xmlns="http://www.w3.org/2000/svg">
<path d="M20.75 6.5C20.9489 6.5 21.1397 6.42098 21.2803 6.28033C21.421 6.13968 21.5 5.94891 21.5 5.75V2C21.5 1.60218 21.342 1.22064 21.0607 0.93934C20.7794 0.658035 20.3978 0.5 20 0.5H2C1.60218 0.5 1.22064 0.658035 0.93934 0.93934C0.658035 1.22064 0.5 1.60218 0.5 2V5.75C0.5 5.94891 0.579018 6.13968 0.71967 6.28033C0.860322 6.42098 1.05109 6.5 1.25 6.5C1.64782 6.5 2.02936 6.65804 2.31066 6.93934C2.59196 7.22064 2.75 7.60218 2.75 8C2.75 8.39782 2.59196 8.77936 2.31066 9.06066C2.02936 9.34196 1.64782 9.5 1.25 9.5C1.05109 9.5 0.860322 9.57902 0.71967 9.71967C0.579018 9.86032 0.5 10.0511 0.5 10.25V14C0.5 14.3978 0.658035 14.7794 0.93934 15.0607C1.22064 15.342 1.60218 15.5 2 15.5H20C20.3978 15.5 20.7794 15.342 21.0607 15.0607C21.342 14.7794 21.5 14.3978 21.5 14V10.25C21.5 10.0511 21.421 9.86032 21.2803 9.71967C21.1397 9.57902 20.9489 9.5 20.75 9.5C20.3522 9.5 19.9706 9.34196 19.6893 9.06066C19.408 8.77936 19.25 8.39782 19.25 8C19.25 7.60218 19.408 7.22064 19.6893 6.93934C19.9706 6.65804 20.3522 6.5 20.75 6.5ZM20 10.9025V14H14.75V11.75H13.25V14H2V10.9025C2.642 10.7347 3.21025 10.3588 3.61582 9.8336C4.02139 9.3084 4.24139 8.66356 4.24139 8C4.24139 7.33644 4.02139 6.6916 3.61582 6.1664C3.21025 5.64121 2.642 5.2653 2 5.0975V2H13.25V4.25H14.75V2H20V5.0975C19.358 5.2653 18.7898 5.64121 18.3842 6.1664C17.9786 6.6916 17.7586 7.33644 17.7586 8C17.7586 8.66356 17.9786 9.3084 18.3842 9.8336C18.7898 10.3588 19.358 10.7347 20 10.9025Z" fill="#707070"/>
</svg>
