<svg width="24" height="25" viewBox="0 0 24 25" fill="none" xmlns="http://www.w3.org/2000/svg">
<path d="M12 2.5C6.48 2.5 2 6.98 2 12.5C2 18.02 6.48 22.5 12 22.5C17.52 22.5 22 18.02 22 12.5C22 6.98 17.52 2.5 12 2.5ZM7.35 19C8.66 18.06 10.26 17.5 12 17.5C13.74 17.5 15.34 18.06 16.65 19C15.34 19.94 13.74 20.5 12 20.5C10.26 20.5 8.66 19.94 7.35 19V19ZM18.14 17.62C16.3884 16.2457 14.2264 15.4988 12 15.4988C9.77362 15.4988 7.6116 16.2457 5.86 17.62C4.65692 16.1853 3.9983 14.3723 4 12.5C4 8.08 7.58 4.5 12 4.5C16.42 4.5 20 8.08 20 12.5C20 14.45 19.3 16.23 18.14 17.62Z" fill="#614C4C"/>
<path d="M12 6.5C10.07 6.5 8.5 8.07 8.5 10C8.5 11.93 10.07 13.5 12 13.5C13.93 13.5 15.5 11.93 15.5 10C15.5 8.07 13.93 6.5 12 6.5ZM12 11.5C11.17 11.5 10.5 10.83 10.5 10C10.5 9.17 11.17 8.5 12 8.5C12.83 8.5 13.5 9.17 13.5 10C13.5 10.83 12.83 11.5 12 11.5Z" fill="#614C4C"/>
</svg>
